<?xml version="1.0" encoding="UTF-8" standalone="no"?>
<svg version="1.1" id="Capa_1" xmlns="http://www.w3.org/2000/svg" xmlns:xlink="http://www.w3.org/1999/xlink" x="0px" y="0px"
	 viewBox="0 0 345 172" style="enable-background:new 0 0 345 172;" xml:space="preserve">
<defs><clipPath id="_clipPath_d4CsqYaYZkupT8N6bkmL4hEISeFhdJpE"><rect width="345" height="172"/></clipPath></defs><g clip-path="url(#_clipPath_d4CsqYaYZkupT8N6bkmL4hEISeFhdJpE)"><g><g><g><path d=" M 0 0 L 31 86 L 0 172 L 311 172 L 342 86 L 311 0 L 0 0 Z " fill="rgb(218,92,37)"/></g></g></g><path d=" M 83.94 70.923 C 83.249 70.231 82.125 70.228 81.43 70.919 L 75.595 76.758 L 73.305 74.464 C 72.613 73.773 71.49 73.773 70.798 74.464 C 70.107 75.156 70.107 76.28 70.798 76.971 L 74.344 80.516 C 74.687 80.864 75.141 81.037 75.595 81.037 C 76.049 81.037 76.503 80.864 76.85 80.52 L 83.94 73.429 C 84.632 72.738 84.632 71.614 83.94 70.923 L 83.94 70.923 L 83.94 70.923 L 83.94 70.923 L 83.94 70.923 L 83.94 70.923 Z  M 83.94 86.52 C 83.249 85.829 82.125 85.825 81.43 86.516 L 75.595 92.355 L 73.305 90.061 C 72.613 89.37 71.49 89.37 70.798 90.061 C 70.107 90.753 70.107 91.877 70.798 92.568 L 74.344 96.113 C 74.687 96.461 75.141 96.634 75.595 96.634 C 76.049 96.634 76.503 96.461 76.85 96.117 L 83.94 89.026 C 84.632 88.335 84.632 87.211 83.94 86.52 L 83.94 86.52 L 83.94 86.52 L 83.94 86.52 L 83.94 86.52 L 83.94 86.52 Z  M 83.94 101.408 C 83.249 100.717 82.125 100.713 81.43 101.404 L 75.595 107.243 L 73.305 104.95 C 72.613 104.258 71.49 104.258 70.798 104.95 C 70.107 105.641 70.107 106.765 70.798 107.456 L 74.344 111.001 C 74.687 111.349 75.141 111.522 75.595 111.522 C 76.049 111.522 76.503 111.349 76.85 111.005 L 83.94 103.914 C 84.632 103.223 84.632 102.099 83.94 101.408 L 83.94 101.408 L 83.94 101.408 L 83.94 101.408 L 83.94 101.408 Z  M 117.071 72.973 L 94.384 72.973 C 91.254 72.973 88.713 74.303 88.713 75.942 C 88.713 77.58 91.254 78.91 94.384 78.91 L 117.071 78.91 C 120.202 78.91 122.743 77.58 122.743 75.942 C 122.743 74.303 120.202 72.973 117.071 72.973 L 117.071 72.973 L 117.071 72.973 L 117.071 72.973 Z  M 117.071 88.57 L 94.384 88.57 C 91.254 88.57 88.713 89.9 88.713 91.539 C 88.713 93.177 91.254 94.507 94.384 94.507 L 117.071 94.507 C 120.202 94.507 122.743 93.177 122.743 91.539 C 122.743 89.9 120.202 88.57 117.071 88.57 L 117.071 88.57 L 117.071 88.57 Z  M 117.071 103.458 L 94.384 103.458 C 91.254 103.458 88.713 104.788 88.713 106.427 C 88.713 108.066 91.254 109.396 94.384 109.396 L 117.071 109.396 C 120.202 109.396 122.743 108.066 122.743 106.427 C 122.743 104.788 120.202 103.458 117.071 103.458 L 117.071 103.458 Z  M 83.75 50.375 L 89.688 50.375 C 91.326 50.375 92.656 49.045 92.656 47.406 C 92.656 45.767 93.986 44.438 95.625 44.438 C 97.264 44.438 98.594 45.767 98.594 47.406 C 98.594 49.045 99.924 50.375 101.563 50.375 L 107.5 50.375 L 107.5 56.313 L 83.75 56.313 L 83.75 50.375 L 83.75 50.375 Z  M 125.313 127.563 L 65.938 127.563 L 65.938 117.123 L 65.938 56.313 L 77.813 56.313 L 77.813 59.281 C 77.813 60.92 79.142 62.25 80.781 62.25 L 110.469 62.25 C 112.108 62.25 113.437 60.92 113.438 59.281 L 113.438 56.313 L 125.313 56.313 L 125.313 127.563 L 125.313 127.563 Z  M 125.313 50.375 L 113.438 50.375 L 113.438 47.406 C 113.437 45.767 112.108 44.438 110.469 44.438 L 104.027 44.438 C 102.798 40.982 99.496 38.5 95.625 38.5 C 91.754 38.5 88.452 40.982 87.223 44.438 L 80.781 44.438 C 79.142 44.438 77.813 45.767 77.813 47.406 L 77.813 50.375 L 65.938 50.375 C 62.666 50.375 60 53.041 60 56.313 L 60 127.563 C 60 130.834 62.666 133.5 65.938 133.5 L 125.313 133.5 C 128.584 133.5 131.25 130.834 131.25 127.563 L 131.25 56.313 C 131.25 53.041 128.584 50.375 125.313 50.375 L 125.313 50.375 Z " fill-rule="evenodd" fill="rgb(255,255,255)"/><g clip-path="url(#_clipPath_bFUtA9FnFjh4yLPSauEvsLVAz67pU2PB)"><text transform="matrix(1,0,0,1,165,85.734)" style="font-family:'Roboto';font-weight:700;font-size:36px;font-style:normal;fill:#ffffff;stroke:none;">Easy</text></g><defs><clipPath id="_clipPath_bFUtA9FnFjh4yLPSauEvsLVAz67pU2PB"><rect x="0" y="0" width="79" height="42.188" transform="matrix(1,0,0,1,165,52.336)"/></clipPath></defs><g clip-path="url(#_clipPath_YEfPi1Z43NmHC6m1jJF6xnF7JZBvzxmJ)"><text transform="matrix(1,0,0,1,146.5,124.711)" style="font-family:'Roboto';font-weight:700;font-size:36px;font-style:normal;fill:#ffffff;stroke:none;">Quality</text></g><defs><clipPath id="_clipPath_YEfPi1Z43NmHC6m1jJF6xnF7JZBvzxmJ"><rect x="0" y="0" width="116" height="42.188" transform="matrix(1,0,0,1,146.5,91.313)"/></clipPath></defs></g></svg>