<?xml version="1.0" encoding="UTF-8" standalone="no"?>
<svg version="1.1" id="Capa_1" xmlns="http://www.w3.org/2000/svg" xmlns:xlink="http://www.w3.org/1999/xlink" x="0px" y="0px"
	 viewBox="0 0 342 172" style="enable-background:new 0 0 342 172;" xml:space="preserve">
<defs><clipPath id="_clipPath_PLExzONK9lNXjdXm2ryEjjNxF9UHhxHg"><rect width="342" height="172"/></clipPath></defs><g clip-path="url(#_clipPath_PLExzONK9lNXjdXm2ryEjjNxF9UHhxHg)"><g><g><g><path d=" M 0 0 L 31 86 L 0 172 L 311 172 L 342 86 L 311 0 L 0 0 Z " fill="rgb(218,92,37)"/></g></g></g><circle vector-effect="non-scaling-stroke" cx="95.62499999999997" cy="86" r="61.110839843749986" fill="rgb(235,235,235)"/><path d=" M 83.94 70.923 C 83.249 70.231 82.125 70.228 81.43 70.919 L 75.595 76.758 L 73.305 74.464 C 72.613 73.773 71.49 73.773 70.798 74.464 C 70.107 75.156 70.107 76.28 70.798 76.971 L 74.344 80.516 C 74.687 80.864 75.141 81.037 75.595 81.037 C 76.049 81.037 76.503 80.864 76.85 80.52 L 83.94 73.429 C 84.632 72.738 84.632 71.614 83.94 70.923 L 83.94 70.923 L 83.94 70.923 L 83.94 70.923 L 83.94 70.923 L 83.94 70.923 Z  M 83.94 86.52 C 83.249 85.829 82.125 85.825 81.43 86.516 L 75.595 92.355 L 73.305 90.061 C 72.613 89.37 71.49 89.37 70.798 90.061 C 70.107 90.753 70.107 91.877 70.798 92.568 L 74.344 96.113 C 74.687 96.461 75.141 96.634 75.595 96.634 C 76.049 96.634 76.503 96.461 76.85 96.117 L 83.94 89.026 C 84.632 88.335 84.632 87.211 83.94 86.52 L 83.94 86.52 L 83.94 86.52 L 83.94 86.52 L 83.94 86.52 L 83.94 86.52 Z  M 83.94 101.408 C 83.249 100.717 82.125 100.713 81.43 101.404 L 75.595 107.243 L 73.305 104.95 C 72.613 104.258 71.49 104.258 70.798 104.95 C 70.107 105.641 70.107 106.765 70.798 107.456 L 74.344 111.001 C 74.687 111.349 75.141 111.522 75.595 111.522 C 76.049 111.522 76.503 111.349 76.85 111.005 L 83.94 103.914 C 84.632 103.223 84.632 102.099 83.94 101.408 L 83.94 101.408 L 83.94 101.408 L 83.94 101.408 L 83.94 101.408 Z  M 117.071 72.973 L 94.384 72.973 C 91.254 72.973 88.713 74.303 88.713 75.942 C 88.713 77.58 91.254 78.91 94.384 78.91 L 117.071 78.91 C 120.202 78.91 122.743 77.58 122.743 75.942 C 122.743 74.303 120.202 72.973 117.071 72.973 L 117.071 72.973 L 117.071 72.973 L 117.071 72.973 Z  M 117.071 88.57 L 94.384 88.57 C 91.254 88.57 88.713 89.9 88.713 91.539 C 88.713 93.177 91.254 94.507 94.384 94.507 L 117.071 94.507 C 120.202 94.507 122.743 93.177 122.743 91.539 C 122.743 89.9 120.202 88.57 117.071 88.57 L 117.071 88.57 L 117.071 88.57 Z  M 117.071 103.458 L 94.384 103.458 C 91.254 103.458 88.713 104.788 88.713 106.427 C 88.713 108.066 91.254 109.396 94.384 109.396 L 117.071 109.396 C 120.202 109.396 122.743 108.066 122.743 106.427 C 122.743 104.788 120.202 103.458 117.071 103.458 L 117.071 103.458 Z  M 83.75 50.375 L 89.688 50.375 C 91.326 50.375 92.656 49.045 92.656 47.406 C 92.656 45.768 93.986 44.438 95.625 44.438 C 97.264 44.438 98.594 45.768 98.594 47.406 C 98.594 49.045 99.924 50.375 101.563 50.375 L 107.5 50.375 L 107.5 56.313 L 83.75 56.313 L 83.75 50.375 L 83.75 50.375 Z  M 125.313 127.563 L 65.938 127.563 L 65.938 117.123 L 65.938 56.313 L 77.813 56.313 L 77.813 59.281 C 77.813 60.92 79.143 62.25 80.781 62.25 L 110.469 62.25 C 112.107 62.25 113.437 60.92 113.438 59.281 L 113.438 56.313 L 125.313 56.313 L 125.313 127.563 L 125.313 127.563 Z  M 125.313 50.375 L 113.438 50.375 L 113.438 47.406 C 113.437 45.768 112.107 44.438 110.469 44.438 L 104.027 44.438 C 102.797 40.982 99.496 38.5 95.625 38.5 C 91.754 38.5 88.452 40.982 87.223 44.438 L 80.781 44.438 C 79.143 44.438 77.813 45.768 77.813 47.406 L 77.813 50.375 L 65.938 50.375 C 62.666 50.375 60 53.041 60 56.313 L 60 127.563 C 60 130.834 62.666 133.5 65.938 133.5 L 125.313 133.5 C 128.584 133.5 131.25 130.834 131.25 127.563 L 131.25 56.313 C 131.25 53.041 128.584 50.375 125.313 50.375 L 125.313 50.375 Z " fill-rule="evenodd" fill="rgb(218,92,37)"/><path d=" M 199.938 62.621 L 199.938 65.381 L 188.846 65.381 L 188.846 74.451 L 201.73 74.451 L 201.73 77.211 L 185.471 77.211 L 185.471 51.617 L 201.555 51.617 L 201.555 54.395 L 188.846 54.395 L 188.846 62.621 L 199.938 62.621 L 199.938 62.621 Z  M 220.574 77.211 L 217.164 77.211 L 217.164 77.211 Q 216.883 76.648 216.707 75.207 L 216.707 75.207 L 216.707 75.207 Q 214.439 77.563 211.293 77.563 L 211.293 77.563 L 211.293 77.563 Q 208.48 77.563 206.679 75.972 L 206.679 75.972 L 206.679 75.972 Q 204.877 74.381 204.877 71.938 L 204.877 71.938 L 204.877 71.938 Q 204.877 68.967 207.136 67.323 L 207.136 67.323 L 207.136 67.323 Q 209.395 65.68 213.49 65.68 L 213.49 65.68 L 216.654 65.68 L 216.654 64.186 L 216.654 64.186 Q 216.654 62.48 215.635 61.47 L 215.635 61.47 L 215.635 61.47 Q 214.615 60.459 212.629 60.459 L 212.629 60.459 L 212.629 60.459 Q 210.889 60.459 209.711 61.338 L 209.711 61.338 L 209.711 61.338 Q 208.533 62.217 208.533 63.465 L 208.533 63.465 L 205.264 63.465 L 205.264 63.465 Q 205.264 62.041 206.274 60.714 L 206.274 60.714 L 206.274 60.714 Q 207.285 59.387 209.017 58.613 L 209.017 58.613 L 209.017 58.613 Q 210.748 57.84 212.822 57.84 L 212.822 57.84 L 212.822 57.84 Q 216.109 57.84 217.973 59.483 L 217.973 59.483 L 217.973 59.483 Q 219.836 61.127 219.906 64.01 L 219.906 64.01 L 219.906 72.764 L 219.906 72.764 Q 219.906 75.383 220.574 76.93 L 220.574 76.93 L 220.574 77.211 L 220.574 77.211 Z  M 211.768 74.732 L 211.768 74.732 L 211.768 74.732 Q 213.297 74.732 214.668 73.941 L 214.668 73.941 L 214.668 73.941 Q 216.039 73.15 216.654 71.885 L 216.654 71.885 L 216.654 67.982 L 214.105 67.982 L 214.105 67.982 Q 208.129 67.982 208.129 71.48 L 208.129 71.48 L 208.129 71.48 Q 208.129 73.01 209.148 73.871 L 209.148 73.871 L 209.148 73.871 Q 210.168 74.732 211.768 74.732 Z  M 236.078 72.166 L 236.078 72.166 L 236.078 72.166 Q 236.078 70.848 235.085 70.118 L 235.085 70.118 L 235.085 70.118 Q 234.092 69.389 231.622 68.861 L 231.622 68.861 L 231.622 68.861 Q 229.152 68.334 227.702 67.596 L 227.702 67.596 L 227.702 67.596 Q 226.252 66.857 225.558 65.838 L 225.558 65.838 L 225.558 65.838 Q 224.863 64.818 224.863 63.412 L 224.863 63.412 L 224.863 63.412 Q 224.863 61.074 226.841 59.457 L 226.841 59.457 L 226.841 59.457 Q 228.818 57.84 231.895 57.84 L 231.895 57.84 L 231.895 57.84 Q 235.129 57.84 237.142 59.51 L 237.142 59.51 L 237.142 59.51 Q 239.154 61.18 239.154 63.781 L 239.154 63.781 L 235.885 63.781 L 235.885 63.781 Q 235.885 62.445 234.751 61.479 L 234.751 61.479 L 234.751 61.479 Q 233.617 60.512 231.895 60.512 L 231.895 60.512 L 231.895 60.512 Q 230.119 60.512 229.117 61.285 L 229.117 61.285 L 229.117 61.285 Q 228.115 62.059 228.115 63.307 L 228.115 63.307 L 228.115 63.307 Q 228.115 64.484 229.047 65.082 L 229.047 65.082 L 229.047 65.082 Q 229.979 65.68 232.413 66.225 L 232.413 66.225 L 232.413 66.225 Q 234.848 66.77 236.359 67.525 L 236.359 67.525 L 236.359 67.525 Q 237.871 68.281 238.601 69.345 L 238.601 69.345 L 238.601 69.345 Q 239.33 70.408 239.33 71.938 L 239.33 71.938 L 239.33 71.938 Q 239.33 74.486 237.291 76.024 L 237.291 76.024 L 237.291 76.024 Q 235.252 77.563 232 77.563 L 232 77.563 L 232 77.563 Q 229.715 77.563 227.957 76.754 L 227.957 76.754 L 227.957 76.754 Q 226.199 75.945 225.206 74.495 L 225.206 74.495 L 225.206 74.495 Q 224.213 73.045 224.213 71.357 L 224.213 71.357 L 227.465 71.357 L 227.465 71.357 Q 227.553 72.992 228.774 73.95 L 228.774 73.95 L 228.774 73.95 Q 229.996 74.908 232 74.908 L 232 74.908 L 232 74.908 Q 233.846 74.908 234.962 74.161 L 234.962 74.161 L 234.962 74.161 Q 236.078 73.414 236.078 72.166 Z  M 245.043 58.191 L 249.789 72.447 L 254.219 58.191 L 257.699 58.191 L 250.053 80.146 L 250.053 80.146 Q 248.277 84.893 244.41 84.893 L 244.41 84.893 L 243.795 84.84 L 242.582 84.611 L 242.582 81.975 L 243.461 82.045 L 243.461 82.045 Q 245.113 82.045 246.036 81.377 L 246.036 81.377 L 246.036 81.377 Q 246.959 80.709 247.557 78.934 L 247.557 78.934 L 248.277 77 L 241.492 58.191 L 245.043 58.191 L 245.043 58.191 Z " fill="rgb(255,255,255)"/><path d=" M 187.518 105.793 L 187.518 107.428 L 187.518 107.428 Q 187.518 111.137 186.34 113.817 L 186.34 113.817 L 186.34 113.817 Q 185.162 116.498 183.035 118.01 L 183.035 118.01 L 187.605 121.596 L 185.303 123.723 L 179.906 119.434 L 179.906 119.434 Q 178.641 119.75 177.234 119.75 L 177.234 119.75 L 177.234 119.75 Q 174.211 119.75 171.873 118.265 L 171.873 118.265 L 171.873 118.265 Q 169.535 116.779 168.243 114.028 L 168.243 114.028 L 168.243 114.028 Q 166.951 111.277 166.916 107.656 L 166.916 107.656 L 166.916 105.811 L 166.916 105.811 Q 166.916 102.119 168.199 99.289 L 168.199 99.289 L 168.199 99.289 Q 169.482 96.459 171.829 94.956 L 171.829 94.956 L 171.829 94.956 Q 174.176 93.453 177.199 93.453 L 177.199 93.453 L 177.199 93.453 Q 180.293 93.453 182.64 94.947 L 182.64 94.947 L 182.64 94.947 Q 184.986 96.441 186.252 99.245 L 186.252 99.245 L 186.252 99.245 Q 187.518 102.049 187.518 105.793 L 187.518 105.793 L 187.518 105.793 Z  M 184.143 107.674 L 184.143 105.775 L 184.143 105.775 Q 184.143 101.258 182.341 98.806 L 182.341 98.806 L 182.341 98.806 Q 180.539 96.354 177.199 96.354 L 177.199 96.354 L 177.199 96.354 Q 174.018 96.354 172.181 98.788 L 172.181 98.788 L 172.181 98.788 Q 170.344 101.223 170.291 105.547 L 170.291 105.547 L 170.291 107.428 L 170.291 107.428 Q 170.291 111.822 172.128 114.354 L 172.128 114.354 L 172.128 114.354 Q 173.965 116.885 177.234 116.885 L 177.234 116.885 L 177.234 116.885 Q 180.504 116.885 182.297 114.503 L 182.297 114.503 L 182.297 114.503 Q 184.09 112.121 184.143 107.674 L 184.143 107.674 L 184.143 107.674 Z  M 204.023 119.398 L 203.953 117.518 L 203.953 117.518 Q 202.055 119.75 198.381 119.75 L 198.381 119.75 L 198.381 119.75 Q 195.34 119.75 193.749 117.983 L 193.749 117.983 L 193.749 117.983 Q 192.158 116.217 192.141 112.754 L 192.141 112.754 L 192.141 100.379 L 195.393 100.379 L 195.393 112.666 L 195.393 112.666 Q 195.393 116.99 198.908 116.99 L 198.908 116.99 L 198.908 116.99 Q 202.635 116.99 203.865 114.213 L 203.865 114.213 L 203.865 100.379 L 207.117 100.379 L 207.117 119.398 L 204.023 119.398 L 204.023 119.398 Z  M 227.209 119.398 L 223.799 119.398 L 223.799 119.398 Q 223.518 118.836 223.342 117.395 L 223.342 117.395 L 223.342 117.395 Q 221.074 119.75 217.928 119.75 L 217.928 119.75 L 217.928 119.75 Q 215.115 119.75 213.313 118.159 L 213.313 118.159 L 213.313 118.159 Q 211.512 116.568 211.512 114.125 L 211.512 114.125 L 211.512 114.125 Q 211.512 111.154 213.771 109.511 L 213.771 109.511 L 213.771 109.511 Q 216.029 107.867 220.125 107.867 L 220.125 107.867 L 223.289 107.867 L 223.289 106.373 L 223.289 106.373 Q 223.289 104.668 222.27 103.657 L 222.27 103.657 L 222.27 103.657 Q 221.25 102.646 219.264 102.646 L 219.264 102.646 L 219.264 102.646 Q 217.523 102.646 216.346 103.525 L 216.346 103.525 L 216.346 103.525 Q 215.168 104.404 215.168 105.652 L 215.168 105.652 L 211.898 105.652 L 211.898 105.652 Q 211.898 104.229 212.909 102.901 L 212.909 102.901 L 212.909 102.901 Q 213.92 101.574 215.651 100.801 L 215.651 100.801 L 215.651 100.801 Q 217.383 100.027 219.457 100.027 L 219.457 100.027 L 219.457 100.027 Q 222.744 100.027 224.607 101.671 L 224.607 101.671 L 224.607 101.671 Q 226.471 103.314 226.541 106.197 L 226.541 106.197 L 226.541 114.951 L 226.541 114.951 Q 226.541 117.57 227.209 119.117 L 227.209 119.117 L 227.209 119.398 L 227.209 119.398 Z  M 218.402 116.92 L 218.402 116.92 L 218.402 116.92 Q 219.932 116.92 221.303 116.129 L 221.303 116.129 L 221.303 116.129 Q 222.674 115.338 223.289 114.072 L 223.289 114.072 L 223.289 110.17 L 220.74 110.17 L 220.74 110.17 Q 214.764 110.17 214.764 113.668 L 214.764 113.668 L 214.764 113.668 Q 214.764 115.197 215.783 116.059 L 215.783 116.059 L 215.783 116.059 Q 216.803 116.92 218.402 116.92 Z  M 235.172 92.398 L 235.172 119.398 L 231.92 119.398 L 231.92 92.398 L 235.172 92.398 L 235.172 92.398 Z  M 243.908 100.379 L 243.908 119.398 L 240.656 119.398 L 240.656 100.379 L 243.908 100.379 L 243.908 100.379 Z  M 240.393 95.334 L 240.393 95.334 L 240.393 95.334 Q 240.393 94.543 240.876 93.998 L 240.876 93.998 L 240.876 93.998 Q 241.359 93.453 242.309 93.453 L 242.309 93.453 L 242.309 93.453 Q 243.258 93.453 243.75 93.998 L 243.75 93.998 L 243.75 93.998 Q 244.242 94.543 244.242 95.334 L 244.242 95.334 L 244.242 95.334 Q 244.242 96.125 243.75 96.652 L 243.75 96.652 L 243.75 96.652 Q 243.258 97.18 242.309 97.18 L 242.309 97.18 L 242.309 97.18 Q 241.359 97.18 240.876 96.652 L 240.876 96.652 L 240.876 96.652 Q 240.393 96.125 240.393 95.334 Z  M 250.271 95.773 L 253.523 95.773 L 253.523 100.379 L 257.074 100.379 L 257.074 102.893 L 253.523 102.893 L 253.523 114.688 L 253.523 114.688 Q 253.523 115.83 253.998 116.401 L 253.998 116.401 L 253.998 116.401 Q 254.473 116.973 255.615 116.973 L 255.615 116.973 L 255.615 116.973 Q 256.178 116.973 257.162 116.762 L 257.162 116.762 L 257.162 119.398 L 257.162 119.398 Q 255.879 119.75 254.666 119.75 L 254.666 119.75 L 254.666 119.75 Q 252.486 119.75 251.379 118.432 L 251.379 118.432 L 251.379 118.432 Q 250.271 117.113 250.271 114.688 L 250.271 114.688 L 250.271 102.893 L 246.809 102.893 L 246.809 100.379 L 250.271 100.379 L 250.271 95.773 L 250.271 95.773 Z  M 262.348 100.379 L 267.094 114.635 L 271.523 100.379 L 275.004 100.379 L 267.357 122.334 L 267.357 122.334 Q 265.582 127.08 261.715 127.08 L 261.715 127.08 L 261.1 127.027 L 259.887 126.799 L 259.887 124.162 L 260.766 124.232 L 260.766 124.232 Q 262.418 124.232 263.341 123.564 L 263.341 123.564 L 263.341 123.564 Q 264.264 122.896 264.861 121.121 L 264.861 121.121 L 265.582 119.188 L 258.797 100.379 L 262.348 100.379 L 262.348 100.379 Z " fill="rgb(255,255,255)"/></g></svg>