<?xml version="1.0" encoding="UTF-8" standalone="no"?>
<svg version="1.1" id="Capa_1" xmlns="http://www.w3.org/2000/svg" xmlns:xlink="http://www.w3.org/1999/xlink" x="0px" y="0px"
	 viewBox="0 0 197.4 197.4" style="enable-background:new 0 0 197.4 197.4;" xml:space="preserve">
<defs><clipPath id="_clipPath_NMOldNbqZt5dcWy8pqNjwc8oNuNSt9Ob"><rect width="197.4" height="197.4"/></clipPath></defs><g clip-path="url(#_clipPath_NMOldNbqZt5dcWy8pqNjwc8oNuNSt9Ob)"><circle vector-effect="non-scaling-stroke" cx="98.7" cy="98.7" r="98.7" fill="rgb(218,92,37)"/><path d=" M 44.94 84.91 C 44.249 84.218 43.125 84.215 42.43 84.906 L 36.595 90.745 L 34.305 88.451 C 33.613 87.76 32.49 87.76 31.798 88.451 C 31.107 89.143 31.107 90.266 31.798 90.958 L 35.344 94.503 C 35.687 94.85 36.141 95.024 36.595 95.024 C 37.049 95.024 37.503 94.85 37.85 94.507 L 44.94 87.416 C 45.632 86.725 45.632 85.601 44.94 84.91 L 44.94 84.91 L 44.94 84.91 L 44.94 84.91 L 44.94 84.91 L 44.94 84.91 Z  M 44.94 100.507 C 44.249 99.815 43.125 99.812 42.43 100.503 L 36.595 106.342 L 34.305 104.048 C 33.613 103.357 32.49 103.357 31.798 104.048 C 31.107 104.74 31.107 105.864 31.798 106.555 L 35.344 110.1 C 35.687 110.447 36.141 110.621 36.595 110.621 C 37.049 110.621 37.503 110.447 37.85 110.104 L 44.94 103.013 C 45.632 102.322 45.632 101.198 44.94 100.507 L 44.94 100.507 L 44.94 100.507 L 44.94 100.507 L 44.94 100.507 L 44.94 100.507 Z  M 44.94 115.395 C 44.249 114.703 43.125 114.7 42.43 115.391 L 36.595 121.23 L 34.305 118.936 C 33.613 118.245 32.49 118.245 31.798 118.936 C 31.107 119.628 31.107 120.752 31.798 121.443 L 35.344 124.988 C 35.687 125.336 36.141 125.509 36.595 125.509 C 37.049 125.509 37.503 125.336 37.85 124.992 L 44.94 117.901 C 45.632 117.21 45.632 116.086 44.94 115.395 L 44.94 115.395 L 44.94 115.395 L 44.94 115.395 L 44.94 115.395 Z  M 78.071 86.96 L 55.384 86.96 C 52.254 86.96 49.713 88.29 49.713 89.929 C 49.713 91.567 52.254 92.897 55.384 92.897 L 78.071 92.897 C 81.202 92.897 83.743 91.567 83.743 89.929 C 83.743 88.29 81.202 86.96 78.071 86.96 L 78.071 86.96 L 78.071 86.96 L 78.071 86.96 Z  M 78.071 102.557 L 55.384 102.557 C 52.254 102.557 49.713 103.887 49.713 105.526 C 49.713 107.164 52.254 108.494 55.384 108.494 L 78.071 108.494 C 81.202 108.494 83.743 107.164 83.743 105.526 C 83.743 103.887 81.202 102.557 78.071 102.557 L 78.071 102.557 L 78.071 102.557 Z  M 78.071 117.445 L 55.384 117.445 C 52.254 117.445 49.713 118.775 49.713 120.414 C 49.713 122.052 52.254 123.382 55.384 123.382 L 78.071 123.382 C 81.202 123.382 83.743 122.052 83.743 120.414 C 83.743 118.775 81.202 117.445 78.071 117.445 L 78.071 117.445 Z  M 44.75 64.362 L 50.688 64.362 C 52.326 64.362 53.656 63.032 53.656 61.393 C 53.656 59.754 54.986 58.424 56.625 58.424 C 58.264 58.424 59.594 59.754 59.594 61.393 C 59.594 63.032 60.924 64.362 62.563 64.362 L 68.5 64.362 L 68.5 70.299 L 44.75 70.299 L 44.75 64.362 L 44.75 64.362 Z  M 86.313 141.549 L 26.938 141.549 L 26.938 131.11 L 26.938 70.299 L 38.813 70.299 L 38.813 73.268 C 38.813 74.907 40.143 76.237 41.781 76.237 L 71.469 76.237 C 73.107 76.237 74.437 74.907 74.438 73.268 L 74.438 70.299 L 86.313 70.299 L 86.313 141.549 L 86.313 141.549 Z  M 86.313 64.362 L 74.438 64.362 L 74.438 61.393 C 74.437 59.754 73.107 58.424 71.469 58.424 L 65.027 58.424 C 63.797 54.969 60.496 52.487 56.625 52.487 C 52.754 52.487 49.452 54.969 48.223 58.424 L 41.781 58.424 C 40.143 58.424 38.813 59.754 38.813 61.393 L 38.813 64.362 L 26.938 64.362 C 23.666 64.362 21 67.028 21 70.299 L 21 141.549 C 21 144.821 23.666 147.487 26.938 147.487 L 86.313 147.487 C 89.584 147.487 92.25 144.821 92.25 141.549 L 92.25 70.299 C 92.25 67.028 89.584 64.362 86.313 64.362 L 86.313 64.362 Z " fill-rule="evenodd" fill="rgb(255,255,255)"/><path d=" M 123.238 79.742 L 123.238 82.501 L 112.146 82.501 L 112.146 91.572 L 125.031 91.572 L 125.031 94.332 L 108.771 94.332 L 108.771 68.738 L 124.855 68.738 L 124.855 71.515 L 112.146 71.515 L 112.146 79.742 L 123.238 79.742 Z  M 143.875 94.332 L 140.465 94.332 L 140.465 94.332 Q 140.184 93.769 140.008 92.328 L 140.008 92.328 L 140.008 92.328 Q 137.74 94.683 134.594 94.683 L 134.594 94.683 L 134.594 94.683 Q 131.781 94.683 129.979 93.092 L 129.979 93.092 L 129.979 93.092 Q 128.178 91.501 128.178 89.058 L 128.178 89.058 L 128.178 89.058 Q 128.178 86.087 130.437 84.444 L 130.437 84.444 L 130.437 84.444 Q 132.695 82.8 136.791 82.8 L 136.791 82.8 L 139.955 82.8 L 139.955 81.306 L 139.955 81.306 Q 139.955 79.601 138.936 78.59 L 138.936 78.59 L 138.936 78.59 Q 137.916 77.58 135.93 77.58 L 135.93 77.58 L 135.93 77.58 Q 134.189 77.58 133.012 78.458 L 133.012 78.458 L 133.012 78.458 Q 131.834 79.337 131.834 80.585 L 131.834 80.585 L 128.564 80.585 L 128.564 80.585 Q 128.564 79.162 129.575 77.834 L 129.575 77.834 L 129.575 77.834 Q 130.586 76.507 132.317 75.734 L 132.317 75.734 L 132.317 75.734 Q 134.049 74.96 136.123 74.96 L 136.123 74.96 L 136.123 74.96 Q 139.41 74.96 141.273 76.604 L 141.273 76.604 L 141.273 76.604 Q 143.137 78.248 143.207 81.13 L 143.207 81.13 L 143.207 89.884 L 143.207 89.884 Q 143.207 92.503 143.875 94.05 L 143.875 94.05 L 143.875 94.332 Z  M 135.068 91.853 L 135.068 91.853 L 135.068 91.853 Q 136.598 91.853 137.969 91.062 L 137.969 91.062 L 137.969 91.062 Q 139.34 90.271 139.955 89.005 L 139.955 89.005 L 139.955 85.103 L 137.406 85.103 L 137.406 85.103 Q 131.43 85.103 131.43 88.601 L 131.43 88.601 L 131.43 88.601 Q 131.43 90.13 132.449 90.992 L 132.449 90.992 L 132.449 90.992 Q 133.469 91.853 135.068 91.853 Z  M 159.379 89.287 L 159.379 89.287 L 159.379 89.287 Q 159.379 87.968 158.386 87.239 L 158.386 87.239 L 158.386 87.239 Q 157.393 86.509 154.923 85.982 L 154.923 85.982 L 154.923 85.982 Q 152.453 85.455 151.003 84.716 L 151.003 84.716 L 151.003 84.716 Q 149.553 83.978 148.858 82.958 L 148.858 82.958 L 148.858 82.958 Q 148.164 81.939 148.164 80.533 L 148.164 80.533 L 148.164 80.533 Q 148.164 78.195 150.142 76.578 L 150.142 76.578 L 150.142 76.578 Q 152.119 74.96 155.195 74.96 L 155.195 74.96 L 155.195 74.96 Q 158.43 74.96 160.442 76.63 L 160.442 76.63 L 160.442 76.63 Q 162.455 78.3 162.455 80.902 L 162.455 80.902 L 159.186 80.902 L 159.186 80.902 Q 159.186 79.566 158.052 78.599 L 158.052 78.599 L 158.052 78.599 Q 156.918 77.632 155.195 77.632 L 155.195 77.632 L 155.195 77.632 Q 153.42 77.632 152.418 78.406 L 152.418 78.406 L 152.418 78.406 Q 151.416 79.179 151.416 80.427 L 151.416 80.427 L 151.416 80.427 Q 151.416 81.605 152.348 82.203 L 152.348 82.203 L 152.348 82.203 Q 153.279 82.8 155.714 83.345 L 155.714 83.345 L 155.714 83.345 Q 158.148 83.89 159.66 84.646 L 159.66 84.646 L 159.66 84.646 Q 161.172 85.402 161.901 86.465 L 161.901 86.465 L 161.901 86.465 Q 162.631 87.529 162.631 89.058 L 162.631 89.058 L 162.631 89.058 Q 162.631 91.607 160.592 93.145 L 160.592 93.145 L 160.592 93.145 Q 158.553 94.683 155.301 94.683 L 155.301 94.683 L 155.301 94.683 Q 153.016 94.683 151.258 93.874 L 151.258 93.874 L 151.258 93.874 Q 149.5 93.066 148.507 91.616 L 148.507 91.616 L 148.507 91.616 Q 147.514 90.165 147.514 88.478 L 147.514 88.478 L 150.766 88.478 L 150.766 88.478 Q 150.854 90.113 152.075 91.071 L 152.075 91.071 L 152.075 91.071 Q 153.297 92.029 155.301 92.029 L 155.301 92.029 L 155.301 92.029 Q 157.146 92.029 158.263 91.282 L 158.263 91.282 L 158.263 91.282 Q 159.379 90.535 159.379 89.287 Z  M 168.344 75.312 L 173.09 89.568 L 177.52 75.312 L 181 75.312 L 173.354 97.267 L 173.354 97.267 Q 171.578 102.013 167.711 102.013 L 167.711 102.013 L 167.096 101.96 L 165.883 101.732 L 165.883 99.095 L 166.762 99.165 L 166.762 99.165 Q 168.414 99.165 169.337 98.498 L 169.337 98.498 L 169.337 98.498 Q 170.26 97.83 170.857 96.054 L 170.857 96.054 L 171.578 94.121 L 164.793 75.312 L 168.344 75.312 Z " fill="rgb(255,255,255)"/><g clip-path="url(#_clipPath_VSvJ6CjMsD90lBdkpkgefQzAUB1yM1wF)"><text transform="matrix(1,0,0,1,97.386,129.845)" style="font-family:'Roboto';font-weight:400;font-size:30px;font-style:normal;fill:#ffffff;stroke:none;">Quality</text></g><defs><clipPath id="_clipPath_VSvJ6CjMsD90lBdkpkgefQzAUB1yM1wF"><rect x="0" y="0" width="95" height="35.156" transform="matrix(1,0,0,1,97.386,102.013)"/></clipPath></defs></g></svg>