<?xml version="1.0" encoding="UTF-8" standalone="no"?><!-- Generator: Gravit.io --><svg xmlns="http://www.w3.org/2000/svg" xmlns:xlink="http://www.w3.org/1999/xlink" style="isolation:isolate" viewBox="0 0 581.5 436.7" width="581.5pt" height="436.7pt"><defs><clipPath id="_clipPath_nhcg49QiWWBeDehtdqaPG1gWtLnALrGm"><rect width="581.5" height="436.7"/></clipPath></defs><g clip-path="url(#_clipPath_nhcg49QiWWBeDehtdqaPG1gWtLnALrGm)"><g><path d=" M 452.973 106.143 L 502.14 242.203 L 452.973 376 L 79.36 376 L 129.073 242.203 L 79.36 106.143 L 452.973 106.143 Z " fill="rgb(218,92,37)"/><g><mask id="_mask_s4OpnQS0sfNFDTM2OMVlBXEhjjAkq8ma" x="-200%" y="-200%" width="400%" height="400%"><rect x="-200%" y="-200%" width="400%" height="400%" style="fill:white;"/><path d=" M 452.973 106.143 L 502.14 242.203 L 452.973 376 L 79.36 376 L 129.073 242.203 L 79.36 106.143 L 452.973 106.143 Z " fill="black" stroke="none"/></mask><path d=" M 452.973 106.143 L 502.14 242.203 L 452.973 376 L 79.36 376 L 129.073 242.203 L 79.36 106.143 L 452.973 106.143 Z " fill="none"/><path d=" M 452.973 106.143 L 502.14 242.203 L 452.973 376 L 79.36 376 L 129.073 242.203 L 79.36 106.143 L 452.973 106.143 Z " fill="none" mask="url(#_mask_s4OpnQS0sfNFDTM2OMVlBXEhjjAkq8ma)" vector-effect="non-scaling-stroke" stroke-width="14" stroke="rgb(0,0,0)" stroke-linejoin="miter" stroke-linecap="butt" stroke-miterlimit="4"/></g></g><path d="M 44.68 77 L 165.07 77 C 174.828 77 182.75 84.922 182.75 94.68 L 182.75 127.32 C 182.75 137.078 174.828 145 165.07 145 L 44.68 145 C 34.922 145 27 137.078 27 127.32 L 27 94.68 C 27 84.922 34.922 77 44.68 77 Z" style="stroke:none;fill:#DA5C25;stroke-miterlimit:10;"/><path d="M 44.68 77 L 165.07 77 C 174.828 77 182.75 84.922 182.75 94.68 L 182.75 127.32 C 182.75 137.078 174.828 145 165.07 145 L 44.68 145 C 34.922 145 27 137.078 27 127.32 L 27 94.68 C 27 84.922 34.922 77 44.68 77 Z" style="fill:none;stroke:#000000;stroke-width:14;stroke-linecap:square;stroke-miterlimit:2;"/><g clip-path="url(#_clipPath_lx4dKbz6yjCzwYuGUz5iOFE4fgOQKmWB)"><text transform="matrix(1,0,0,1,66,126.305)" style="font-family:'Roboto';font-weight:400;font-size:36px;font-style:normal;fill:#ffffff;stroke:none;">EASY</text></g><defs><clipPath id="_clipPath_lx4dKbz6yjCzwYuGUz5iOFE4fgOQKmWB"><rect x="0" y="0" width="97" height="42.188" transform="matrix(1,0,0,1,63,89.906)"/></clipPath></defs><g clip-path="url(#_clipPath_mXmtoZsCD0fDnejgwSgbgIsL32n6ODdT)"><text transform="matrix(1,0,0,1,217.75,361.211)" style="font-family:'Roboto';font-weight:400;font-size:36px;font-style:normal;fill:#ffffff;stroke:none;">QUALITY</text></g><defs><clipPath id="_clipPath_mXmtoZsCD0fDnejgwSgbgIsL32n6ODdT"><rect x="0" y="0" width="167.25" height="42.188" transform="matrix(1,0,0,1,217.75,327.813)"/></clipPath></defs><g><path d=" M 343.129 197.446 L 312.429 166.747 C 310.555 164.872 308.063 163.84 305.412 163.84 L 245.387 163.84 C 239.916 163.84 235.464 168.291 235.464 173.763 L 235.464 299.077 C 235.464 304.549 239.916 309 245.387 309 L 336.113 309 C 341.584 309 346.036 304.549 346.036 299.077 L 346.036 204.463 C 346.036 201.813 345.004 199.321 343.129 197.446 Z  M 325.027 191.373 L 331.516 197.862 L 313.431 197.862 C 312.65 197.862 312.014 197.226 312.014 196.444 L 312.014 178.36 L 325.027 191.373 Z  M 336.113 300.495 L 245.387 300.495 C 244.606 300.495 243.97 299.859 243.97 299.077 L 243.97 173.763 C 243.97 172.981 244.606 172.345 245.387 172.345 L 303.508 172.345 L 303.508 196.444 C 303.508 201.916 307.96 206.367 313.431 206.367 L 337.53 206.367 L 337.53 299.077 C 337.53 299.859 336.894 300.495 336.113 300.495 Z " fill="rgb(255,255,255)"/><path d=" M 295.315 228.765 L 322.411 228.765 C 324.759 228.765 326.663 226.861 326.663 224.512 C 326.663 222.164 324.759 220.259 322.411 220.259 L 295.315 220.259 C 292.966 220.259 291.062 222.164 291.062 224.512 C 291.062 226.861 292.966 228.765 295.315 228.765 Z " fill="rgb(255,255,255)"/><path d=" M 295.315 257.117 L 322.411 257.117 C 324.759 257.117 326.663 255.212 326.663 252.864 C 326.663 250.515 324.759 248.611 322.411 248.611 L 295.315 248.611 C 292.966 248.611 291.062 250.515 291.062 252.864 C 291.062 255.212 292.966 257.117 295.315 257.117 Z " fill="rgb(255,255,255)"/><path d=" M 322.532 276.963 L 295.315 276.963 C 292.966 276.963 291.062 278.867 291.062 281.215 C 291.062 283.564 292.966 285.468 295.315 285.468 L 322.532 285.468 C 324.881 285.468 326.785 283.564 326.785 281.215 C 326.785 278.867 324.881 276.963 322.532 276.963 Z " fill="rgb(255,255,255)"/><path d=" M 274.095 212.933 L 264.288 222.74 L 261.975 220.427 C 260.315 218.766 257.622 218.766 255.961 220.427 C 254.3 222.088 254.3 224.78 255.961 226.441 L 261.281 231.761 C 262.111 232.592 263.2 233.007 264.288 233.007 C 265.376 233.007 266.465 232.592 267.295 231.761 L 280.109 218.947 C 281.77 217.286 281.77 214.593 280.109 212.933 C 278.449 211.272 275.756 211.272 274.095 212.933 Z " fill="rgb(255,255,255)"/><path d=" M 274.095 243.449 L 264.288 253.257 L 261.975 250.944 C 260.315 249.284 257.622 249.283 255.961 250.944 C 254.3 252.605 254.3 255.298 255.961 256.958 L 261.281 262.278 C 262.111 263.108 263.2 263.523 264.288 263.523 C 265.376 263.523 266.465 263.108 267.295 262.278 L 280.109 249.463 C 281.77 247.802 281.77 245.11 280.109 243.449 C 278.449 241.789 275.756 241.789 274.095 243.449 L 274.095 243.449 Z " fill="rgb(255,255,255)"/><path d=" M 274.095 271.801 L 264.288 281.608 L 261.975 279.296 C 260.315 277.635 257.622 277.635 255.961 279.296 C 254.3 280.957 254.3 283.649 255.961 285.31 L 261.281 290.63 C 262.111 291.46 263.2 291.875 264.288 291.875 C 265.376 291.875 266.465 291.46 267.295 290.629 L 280.109 277.815 C 281.77 276.154 281.77 273.462 280.109 271.801 C 278.449 270.14 275.756 270.14 274.095 271.801 L 274.095 271.801 Z " fill="rgb(255,255,255)"/></g></g></svg>