<svg id="Capa_1" enable-background="new 0 0 510 510" height="512" viewBox="0 0 510 510" width="512" xmlns="http://www.w3.org/2000/svg"><g id="XMLID_1993_"><path id="XMLID_1994_" d="m225 180c16.542 0 30-13.458 30-30 0-9.112-14.115-29.617-29.994-47.286-15.882 17.689-30.006 38.203-30.006 47.286 0 16.542 13.458 30 30 30z"/><path id="XMLID_1995_" d="m405 0h-360v450h360zm-180 59.987c21.039 20.674 60 60.128 60 90.013 0 33.084-26.916 60-60 60s-60-26.916-60-60c0-29.86 39.012-69.388 60-90.013zm105 330.013h-210v-30h210zm0-60h-210v-30h210zm0-60h-210v-30h210z"/><path id="XMLID_2001_" d="m435 45v435h-345v30h345 30v-30-435z"/></g></svg>