<?xml version="1.0" encoding="iso-8859-1"?>
<!-- Generator: Adobe Illustrator 19.0.0, SVG Export Plug-In . SVG Version: 6.00 Build 0)  -->
<svg version="1.1" id="Capa_1" xmlns="http://www.w3.org/2000/svg" xmlns:xlink="http://www.w3.org/1999/xlink" x="0px" y="0px"
	 viewBox="0 0 512 512" style="enable-background:new 0 0 512 512;" xml:space="preserve">
<g>
	<g>
		<path d="M289.328,290.839c-5.857-5.857-15.355-5.857-21.213,0l-34.836,34.836l-46.953-46.953l34.836-34.836
			c5.858-5.857,5.858-15.355,0-21.213c-5.857-5.857-15.355-5.857-21.213,0l-34.836,34.836l-12.115-12.115
			c-0.008-0.008-11.361-11.359-11.361-11.359c-5.857-5.857-15.355-5.857-21.213,0c-5.857,5.858-5.857,15.355,0,21.214l0.753,0.753
			l-46.196,46.197c-33.563,33.563-36.81,86.123-9.764,123.375l-60.823,60.82c-5.858,5.858-5.858,15.355,0,21.214
			c2.93,2.929,6.768,4.393,10.607,4.393s7.678-1.465,10.606-4.393l60.811-60.81c16.172,11.78,35.583,18.145,55.975,18.145
			c0.002,0,0,0,0.001,0c25.462,0,49.403-9.917,67.407-27.921l46.202-46.199l0.753,0.754c2.93,2.929,6.768,4.392,10.607,4.392
			c3.838,0,7.678-1.464,10.606-4.392c5.857-5.858,5.857-15.355-0.001-21.214l-23.476-23.476l34.835-34.836
			C295.186,306.194,295.186,296.697,289.328,290.839z"/>
	</g>
</g>
<g>
	<g>
		<path d="M507.608,4.394c-5.857-5.858-15.355-5.858-21.214,0l-60.811,60.808c-16.173-11.779-35.584-18.144-55.977-18.144
			c-25.463,0-49.404,9.918-67.408,27.922l-46.197,46.199l-0.755-0.755c-5.857-5.857-15.355-5.857-21.213,0.001
			c-5.857,5.857-5.857,15.355,0,21.213l136.33,136.329c2.93,2.929,6.768,4.393,10.607,4.393c3.838,0,7.678-1.464,10.605-4.393
			c5.858-5.858,5.858-15.355,0-21.213l-0.754-0.755l46.197-46.195c33.563-33.561,36.81-86.121,9.766-123.375l60.822-60.821
			C513.465,19.75,513.465,10.253,507.608,4.394z"/>
	</g>
</g>
<g>
</g>
<g>
</g>
<g>
</g>
<g>
</g>
<g>
</g>
<g>
</g>
<g>
</g>
<g>
</g>
<g>
</g>
<g>
</g>
<g>
</g>
<g>
</g>
<g>
</g>
<g>
</g>
<g>
</g>
</svg>
