<?xml version="1.0" encoding="UTF-8" standalone="no"?>
<svg
   version="1.1"
   id="svg2"
   xml:space="preserve"
   width="755.90668"
   height="755.90668"
   viewBox="0 0 755.90668 755.90668"
   sodipodi:docname="SPI_Logo.ai"><metadata
     
     transform="matrix(1.3333333,0,0,-1.3333333,0,755.90667)"><g
       id="g12"><g
         id="g14"
         clip-path="url(#clipPath18)"><g
           id="g20"><g
             id="g22" /><g
             id="g94"><g
               clip-path="url(#clipPath26)"
               id="g92"><g
                 id="g54"><g
                   id="g44" /><g
                   id="g52"><g
                     clip-path="url(#clipPath30)"
                     id="g50"><g
                       transform="translate(115.6986,229.0534)"
                       id="g48"><path
                         d="m 0,0 c -0.116,0 -0.232,0.115 -0.232,0.251 0,8.228 -6.707,14.931 -14.931,14.931 -0.155,0 -0.235,0.12 -0.235,0.256 0,0.155 0.08,0.271 0.235,0.271 8.536,0 15.438,-6.938 15.438,-15.458 C 0.275,0.115 0.156,0 0,0"
                         style="fill:#f26821;fill-opacity:1;fill-rule:nonzero;stroke:none"
                         id="path46" /></g></g></g></g><g
                 id="g66"><g
                   id="g56" /><g
                   id="g64"><g
                     clip-path="url(#clipPath34)"
                     id="g62"><g
                       transform="translate(100.536,213.8665)"
                       id="g60"><path
                         d="m 0,0 c -0.156,0 -0.236,0.116 -0.236,0.256 0,0.155 0.08,0.271 0.236,0.271 8.224,0 14.931,6.707 14.931,14.911 0,0.156 0.116,0.276 0.232,0.276 0.155,0 0.275,-0.12 0.275,-0.276 C 15.438,6.939 8.535,0 0,0"
                         style="fill:#ffcd04;fill-opacity:1;fill-rule:nonzero;stroke:none"
                         id="path58" /></g></g></g></g><g
                 id="g78"><g
                   id="g68" /><g
                   id="g76"><g
                     clip-path="url(#clipPath38)"
                     id="g74"><g
                       transform="translate(100.536,213.8665)"
                       id="g72"><path
                         d="m 0,0 c -8.5,0 -15.442,6.939 -15.442,15.438 0,0.156 0.12,0.276 0.275,0.276 0.116,0 0.272,-0.12 0.272,-0.276 C -14.895,7.234 -8.228,0.527 0,0.527 0.156,0.527 0.271,0.411 0.271,0.256 0.271,0.116 0.156,0 0,0"
                         style="fill:#f26821;fill-opacity:1;fill-rule:nonzero;stroke:none"
                         id="path70" /></g></g></g></g><g
                 id="g90"><g
                   id="g80" /><g
                   id="g88"><g
                     clip-path="url(#clipPath42)"
                     id="g86"><g
                       transform="translate(85.3694,229.0534)"
                       id="g84"><path
                         d="m 0,0 v 0 c -0.155,0 -0.275,0.115 -0.275,0.251 0,8.52 6.942,15.458 15.442,15.458 0.155,0 0.271,-0.116 0.271,-0.271 0,-0.136 -0.116,-0.256 -0.271,-0.256 C 6.939,15.182 0.271,8.479 0.271,0.251 0.271,0.115 0.116,0 0,0"
                         style="fill:#8db73f;fill-opacity:1;fill-rule:nonzero;stroke:none"
                         id="path82" /></g></g></g></g></g></g></g><g
           id="g96"><g
             id="g98" /><g
             id="g110"><g
               clip-path="url(#clipPath102)"
               id="g108"><g
                 transform="translate(110.9039,229.0534)"
                 id="g106"><path
                   d="m 0,0 h -10.368 c -0.156,0 -0.235,0.115 -0.235,0.251 0,0.156 0.079,0.276 0.235,0.276 H 0 c 0.12,0 0.275,-0.12 0.275,-0.276 C 0.275,0.115 0.12,0 0,0"
                   style="fill:#f26821;fill-opacity:1;fill-rule:nonzero;stroke:none"
                   id="path104" /></g></g></g></g><g
           id="g112"><g
             id="g114" /><g
             id="g126"><g
               clip-path="url(#clipPath118)"
               id="g124"><g
                 transform="translate(100.536,229.0534)"
                 id="g122"><path
                   d="m 0,0 h -10.332 c -0.156,0 -0.275,0.115 -0.275,0.251 0,0.156 0.119,0.276 0.275,0.276 H 0 c 0.156,0 0.271,-0.12 0.271,-0.276 C 0.271,0.115 0.156,0 0,0"
                   style="fill:#ffcd04;fill-opacity:1;fill-rule:nonzero;stroke:none"
                   id="path120" /></g></g></g></g><g
           id="g128"><g
             id="g130" /><g
             id="g142"><g
               clip-path="url(#clipPath134)"
               id="g140"><g
                 transform="translate(102.7158,221.839)"
                 id="g138"><path
                   d="m 0,0 c -0.076,0 -0.156,0.02 -0.192,0.08 -0.119,0.116 -0.079,0.271 0,0.367 L 7.992,7.661 C 8.112,7.777 8.268,7.757 8.384,7.641 8.464,7.525 8.464,7.37 8.344,7.27 L 0.196,0.04 C 0.12,0.02 0.08,0 0,0"
                   style="fill:#8db73f;fill-opacity:1;fill-rule:nonzero;stroke:none"
                   id="path136" /></g></g></g></g><g
           id="g144"><g
             id="g146" /><g
             id="g158"><g
               clip-path="url(#clipPath150)"
               id="g156"><g
                 transform="translate(110.9039,229.0534)"
                 id="g154"><path
                   d="M 0,0 C -0.076,0 -0.116,0.02 -0.196,0.055 L -8.38,7.269 c -0.08,0.096 -0.12,0.272 0,0.392 0.076,0.115 0.272,0.115 0.388,0.02 L 0.156,0.447 C 0.275,0.351 0.275,0.195 0.196,0.075 0.12,0.02 0.08,0 0,0"
                   style="fill:#8db73f;fill-opacity:1;fill-rule:nonzero;stroke:none"
                   id="path152" /></g></g></g></g><g
           id="g160"
           transform="translate(85.0615,324.8085)"><path
             d="m 0,0 c 0,0.627 0.467,0.949 1.031,0.949 0.626,0 1.093,-0.322 1.093,-0.949 0,-33.144 27.03,-60.174 60.093,-60.174 0.628,0 1.11,-0.466 1.11,-0.933 0,-0.627 -0.482,-1.11 -1.11,-1.11 C 27.963,-62.217 0,-34.399 0,0"
             style="fill:#8db73f;fill-opacity:1;fill-rule:nonzero;stroke:none"
             id="path162" /></g><g
           id="g164"><g
             id="g166" /><g
             id="g178"><g
               clip-path="url(#clipPath170)"
               id="g176"><g
                 transform="translate(146.2666,385.9314)"
                 id="g174"><path
                   d="m 0,0 v 0 c 0,0.626 0.465,1.109 1.012,1.109 34.334,0 62.297,-27.978 62.297,-62.232 0,-0.627 -0.466,-1.094 -1.094,-1.094 -0.547,0 -1.029,0.467 -1.029,1.094 0,33.16 -27.014,60.029 -60.174,60.029 C 0.465,-1.094 0,-0.467 0,0"
                   style="fill:#8db73f;fill-opacity:1;fill-rule:nonzero;stroke:none"
                   id="path172" /></g></g></g></g><g
           id="g180"><g
             id="g182" /><g
             id="g194"><g
               clip-path="url(#clipPath186)"
               id="g192"><g
                 transform="translate(280.5884,385.9301)"
                 id="g190"><path
                   d="m 0,0 c 0,-0.467 -0.465,-0.933 -1.012,-0.933 -33.16,0 -60.174,-27.03 -60.174,-60.174 0,-0.627 -0.482,-0.949 -1.029,-0.949 -0.628,0 -1.094,0.322 -1.094,0.949 0,34.399 27.963,62.217 62.297,62.217 C -0.465,1.11 0,0.628 0,0"
                   style="fill:#f26821;fill-opacity:1;fill-rule:nonzero;stroke:none"
                   id="path188" /></g></g></g></g><g
           id="g196"><g
             id="g198" /><g
             id="g210"><g
               clip-path="url(#clipPath202)"
               id="g208"><g
                 transform="translate(341.7935,324.8232)"
                 id="g206"><path
                   d="m 0,0 c 0,-34.254 -27.963,-62.232 -62.217,-62.232 -0.628,0 -1.11,0.483 -1.11,1.109 0,0.467 0.482,1.094 1.11,1.094 33.063,0 60.093,26.869 60.093,60.029 0,0.627 0.467,1.094 1.093,1.094 C -0.467,1.094 0,0.627 0,0"
                   style="fill:#f26821;fill-opacity:1;fill-rule:nonzero;stroke:none"
                   id="path204" /></g></g></g></g><g
           id="g212"><g
             id="g214" /><g
             id="g226"><g
               clip-path="url(#clipPath218)"
               id="g224"><g
                 transform="translate(473.587,324.8232)"
                 id="g222"><path
                   d="m 0,0 c 0,-0.627 -0.467,-0.949 -1.031,-0.949 -0.626,0 -1.093,0.322 -1.093,0.949 0,33.144 -27.03,60.174 -60.093,60.174 -0.628,0 -1.11,0.466 -1.11,0.933 0,0.627 0.482,1.11 1.11,1.11 C -27.963,62.217 0,34.399 0,0"
                   style="fill:#ffcd04;fill-opacity:1;fill-rule:nonzero;stroke:none"
                   id="path220" /></g></g></g></g><g
           id="g228"
           transform="translate(412.3819,263.7003)"><path
             d="m 0,0 v 0 c 0,-0.626 -0.465,-1.109 -1.012,-1.109 -34.334,0 -62.297,27.978 -62.297,62.232 0,0.627 0.466,1.094 1.094,1.094 0.547,0 1.029,-0.467 1.029,-1.094 0,-33.16 27.014,-60.029 60.174,-60.029 C -0.465,1.094 0,0.467 0,0"
             style="fill:#ffcd04;fill-opacity:1;fill-rule:nonzero;stroke:none"
             id="path230" /></g><g
           id="g232"
           transform="translate(168.7527,350.803)"><path
             d="m 0,0 -4.674,-4.674 c -4.101,3.911 -8.775,5.914 -15.833,5.914 -9.157,0 -14.403,-5.055 -14.403,-12.686 0,-3.338 0.954,-6.104 3.052,-7.917 2.099,-1.812 5.342,-2.956 8.871,-3.529 l 7.917,-1.24 c 6.295,-0.953 9.252,-2.098 12.304,-4.865 3.624,-3.147 5.723,-7.725 5.723,-13.353 0,-11.923 -9.252,-19.267 -23.464,-19.267 -10.111,0 -16.883,2.575 -23.178,8.966 l 4.864,4.864 c 5.628,-5.628 10.874,-7.344 18.505,-7.344 10.015,0 16.119,4.578 16.119,12.59 0,3.625 -1.049,6.486 -3.338,8.489 -2.099,1.908 -4.006,2.576 -8.871,3.339 l -7.916,1.144 c -5.342,0.859 -9.348,2.48 -12.4,5.151 -3.434,3.052 -5.246,7.249 -5.246,12.781 0,11.542 8.298,19.077 21.747,19.077 C -11.541,7.44 -5.818,5.151 0,0"
             style="fill:#521224;fill-opacity:1;fill-rule:nonzero;stroke:none"
             id="path234" /></g><g
           id="g236"
           transform="translate(267.5841,351.1844)"><path
             d="m 0,0 v -26.993 h 17.455 c 8.489,0 14.307,4.578 14.307,13.544 C 31.762,-4.483 25.944,0 17.455,0 Z m 18.027,6.486 c 12.305,0 20.984,-7.821 20.984,-19.935 0,-12.113 -8.679,-20.03 -20.984,-20.03 H 0 V -61.426 H -7.25 V 6.486 Z"
             style="fill:#521224;fill-opacity:1;fill-rule:nonzero;stroke:none"
             id="path238" /></g><path
           d="m 416.007,289.758 h -7.25 v 67.913 h 7.25 z"
           style="fill:#521224;fill-opacity:1;fill-rule:nonzero;stroke:none"
           id="path240" /><g
           id="g242"
           transform="translate(134.2915,234.813)"><path
             d="M 0,0 H -3.099 V -9.689 H -4.243 V 0 H -7.342 V 1.022 H 0 Z"
             style="fill:#f26821;fill-opacity:1;fill-rule:nonzero;stroke:none"
             id="path244" /></g><g
           id="g246"
           transform="translate(142.0371,230.5845)"><path
             d="M 0,0 C -0.181,-0.391 -0.196,-0.632 -0.226,-1.233 H 3.701 C 3.656,-0.632 3.641,-0.391 3.46,0 3.145,0.678 2.527,1.114 1.73,1.114 0.933,1.114 0.316,0.678 0,0 m 4.769,-1.564 v -0.482 h -4.995 c 0,-1.625 0.752,-2.558 2.182,-2.558 0.857,0 1.354,0.256 1.94,0.843 L 4.634,-4.408 C 3.882,-5.16 3.174,-5.551 1.926,-5.551 c -1.971,0 -3.235,1.173 -3.235,3.791 0,2.407 1.159,3.791 3.039,3.791 1.926,0 3.039,-1.369 3.039,-3.595"
             style="fill:#f26821;fill-opacity:1;fill-rule:nonzero;stroke:none"
             id="path248" /></g><g
           id="g250"
           transform="translate(160.4502,231.5181)"><path
             d="m 0,0 -0.737,-0.692 c -0.557,0.617 -0.993,0.827 -1.701,0.827 -0.722,0 -1.323,-0.285 -1.714,-0.842 -0.347,-0.481 -0.482,-1.054 -0.482,-1.986 0,-0.933 0.135,-1.505 0.482,-1.987 0.391,-0.556 0.992,-0.841 1.714,-0.841 0.708,0 1.144,0.225 1.701,0.841 L 0,-5.387 c -0.768,-0.827 -1.415,-1.097 -2.438,-1.097 -1.865,0 -3.279,1.263 -3.279,3.791 0,2.527 1.414,3.791 3.279,3.791 C -1.415,1.098 -0.768,0.827 0,0"
             style="fill:#f26821;fill-opacity:1;fill-rule:nonzero;stroke:none"
             id="path252" /></g><g
           id="g254"
           transform="translate(169.6104,231.6988)"><path
             d="m 0,0 c 0.542,0.616 1.218,0.917 2.076,0.917 0.798,0 1.46,-0.24 1.911,-0.691 0.526,-0.512 0.752,-1.219 0.752,-2.077 V -6.575 H 3.656 v 4.558 c 0,1.309 -0.692,1.971 -1.805,1.971 C 0.737,-0.046 0,-0.723 0,-2.017 V -6.575 H -1.083 V 4.137 l 1.083,0 z"
             style="fill:#f26821;fill-opacity:1;fill-rule:nonzero;stroke:none"
             id="path256" /></g><g
           id="g258"
           transform="translate(188.0679,231.9244)"><path
             d="m 0,0 c 0.526,-0.512 0.767,-1.219 0.767,-2.076 v -4.725 h -1.083 v 4.559 c 0,1.308 -0.707,1.971 -1.82,1.971 -1.114,0 -1.851,-0.677 -1.851,-1.971 V -6.801 H -5.07 v 7.403 h 1.068 v -0.828 c 0.526,0.602 1.264,0.917 2.091,0.917 0.798,0 1.46,-0.24 1.911,-0.691"
             style="fill:#f26821;fill-opacity:1;fill-rule:nonzero;stroke:none"
             id="path260" /></g><g
           id="g262"
           transform="translate(198.7769,231.1119)"><path
             d="m 0,0 c -0.542,-0.542 -0.602,-1.444 -0.602,-2.287 0,-0.827 0.045,-1.731 0.602,-2.287 0.361,-0.362 0.812,-0.541 1.339,-0.541 0.527,0 0.993,0.179 1.354,0.541 0.542,0.556 0.587,1.46 0.587,2.287 C 3.28,-1.444 3.235,-0.542 2.693,0 2.332,0.36 1.866,0.541 1.339,0.541 0.812,0.541 0.361,0.36 0,0 m 3.46,0.662 c 0.752,-0.753 0.903,-1.806 0.903,-2.949 0,-1.144 -0.151,-2.182 -0.903,-2.949 -0.511,-0.527 -1.218,-0.842 -2.121,-0.842 -0.902,0 -1.61,0.315 -2.121,0.842 -0.753,0.767 -0.903,1.805 -0.903,2.949 0,1.143 0.15,2.196 0.903,2.949 0.511,0.526 1.219,0.842 2.121,0.842 0.903,0 1.61,-0.316 2.121,-0.842"
             style="fill:#f26821;fill-opacity:1;fill-rule:nonzero;stroke:none"
             id="path264" /></g><g
           id="g266"
           transform="translate(212.5254,227.1392)"><path
             d="M 0,0 C 0,-0.722 0.241,-1.083 0.993,-1.083 H 1.58 V -2.016 H 0.797 c -1.294,0 -1.88,0.843 -1.88,1.971 V 8.696 H 0 Z"
             style="fill:#f26821;fill-opacity:1;fill-rule:nonzero;stroke:none"
             id="path268" /></g><g
           id="g270"
           transform="translate(223.1006,231.1119)"><path
             d="m 0,0 c -0.542,-0.542 -0.602,-1.444 -0.602,-2.287 0,-0.827 0.045,-1.731 0.602,-2.287 0.361,-0.362 0.812,-0.541 1.339,-0.541 0.527,0 0.993,0.179 1.354,0.541 0.542,0.556 0.587,1.46 0.587,2.287 C 3.28,-1.444 3.235,-0.542 2.693,0 2.332,0.36 1.866,0.541 1.339,0.541 0.812,0.541 0.361,0.36 0,0 m 3.46,0.662 c 0.753,-0.753 0.903,-1.806 0.903,-2.949 0,-1.144 -0.15,-2.182 -0.903,-2.949 -0.511,-0.527 -1.218,-0.842 -2.121,-0.842 -0.902,0 -1.61,0.315 -2.121,0.842 -0.753,0.767 -0.903,1.805 -0.903,2.949 0,1.143 0.15,2.196 0.903,2.949 0.511,0.526 1.219,0.842 2.121,0.842 0.903,0 1.61,-0.316 2.121,-0.842"
             style="fill:#f26821;fill-opacity:1;fill-rule:nonzero;stroke:none"
             id="path272" /></g><g
           id="g274"
           transform="translate(236.4883,228.8853)"><path
             d="M 0,0 C 0,-1.385 0.24,-2.769 1.85,-2.769 3.46,-2.769 3.686,-1.385 3.686,0 3.686,1.384 3.46,2.768 1.85,2.768 0.24,2.768 0,1.384 0,0 m 3.701,2.768 v 0.873 h 1.068 v -7.628 c 0,-1.836 -1.144,-3.175 -3.084,-3.175 -1.114,0 -1.73,0.286 -2.513,0.993 l 0.707,0.692 c 0.542,-0.481 0.918,-0.737 1.776,-0.737 1.429,0 2.031,1.008 2.031,2.272 v 1.158 C 3.084,-3.551 2.407,-3.747 1.609,-3.747 c -0.752,0 -1.399,0.271 -1.79,0.662 -0.737,0.737 -0.902,1.881 -0.902,3.085 0,1.203 0.165,2.347 0.902,3.084 0.391,0.391 1.054,0.646 1.806,0.646 0.812,0 1.474,-0.18 2.076,-0.962"
             style="fill:#f26821;fill-opacity:1;fill-rule:nonzero;stroke:none"
             id="path276" /></g><g
           id="g278"
           transform="translate(251.7715,223.1978)"><path
             d="m 0,0 c -0.15,-0.406 -0.316,-0.677 -0.527,-0.873 -0.391,-0.376 -0.917,-0.511 -1.444,-0.511 h -0.467 v 0.963 h 0.332 c 0.752,0 0.978,0.24 1.218,0.917 l 0.572,1.58 -2.663,7.252 h 1.173 L 0.226,3.385 2.242,9.328 h 1.173 z"
             style="fill:#f26821;fill-opacity:1;fill-rule:nonzero;stroke:none"
             id="path280" /></g><g
           id="g282"
           transform="translate(273.7476,232.5259)"><path
             d="M 0,0 H 1.58 V -0.827 H 0 v -4.56 C 0,-6.078 0.316,-6.47 1.008,-6.47 H 1.58 V -7.402 H 0.812 c -1.263,0 -1.895,0.887 -1.895,1.986 v 4.589 H -2.016 V 0 h 0.933 V 2.271 H 0 Z"
             style="fill:#f26821;fill-opacity:1;fill-rule:nonzero;stroke:none"
             id="path284" /></g><g
           id="g286"
           transform="translate(284.7139,231.1119)"><path
             d="m 0,0 c -0.542,-0.542 -0.602,-1.444 -0.602,-2.287 0,-0.827 0.045,-1.731 0.602,-2.287 0.361,-0.362 0.812,-0.541 1.339,-0.541 0.527,0 0.993,0.179 1.354,0.541 0.542,0.556 0.587,1.46 0.587,2.287 C 3.28,-1.444 3.235,-0.542 2.693,0 2.332,0.36 1.866,0.541 1.339,0.541 0.812,0.541 0.361,0.36 0,0 m 3.46,0.662 c 0.753,-0.753 0.903,-1.806 0.903,-2.949 0,-1.144 -0.15,-2.182 -0.903,-2.949 -0.511,-0.527 -1.218,-0.842 -2.121,-0.842 -0.902,0 -1.61,0.315 -2.121,0.842 -0.753,0.767 -0.903,1.805 -0.903,2.949 0,1.143 0.15,2.196 0.903,2.949 0.511,0.526 1.219,0.842 2.121,0.842 0.903,0 1.61,-0.316 2.121,-0.842"
             style="fill:#f26821;fill-opacity:1;fill-rule:nonzero;stroke:none"
             id="path288" /></g><g
           id="g290"
           transform="translate(308.0742,230.5845)"><path
             d="M 0,0 C -0.181,-0.391 -0.196,-0.632 -0.226,-1.233 H 3.701 C 3.656,-0.632 3.641,-0.391 3.46,0 3.145,0.678 2.527,1.114 1.73,1.114 0.933,1.114 0.316,0.678 0,0 m 4.769,-1.564 v -0.482 h -4.995 c 0,-1.625 0.752,-2.558 2.182,-2.558 0.857,0 1.354,0.256 1.94,0.843 L 4.634,-4.408 C 3.882,-5.16 3.174,-5.551 1.926,-5.551 c -1.971,0 -3.235,1.173 -3.235,3.791 0,2.407 1.159,3.791 3.039,3.791 1.926,0 3.039,-1.369 3.039,-3.595"
             style="fill:#f26821;fill-opacity:1;fill-rule:nonzero;stroke:none"
             id="path292" /></g><g
           id="g294"
           transform="translate(323.689,228.9)"><path
             d="M 0,0 2.513,-3.776 H 1.204 l -1.776,2.874 -1.805,-2.874 H -3.686 L -1.173,0 -3.581,3.626 h 1.309 l 1.7,-2.738 1.67,2.738 h 1.309 z"
             style="fill:#f26821;fill-opacity:1;fill-rule:nonzero;stroke:none"
             id="path296" /></g><g
           id="g298"
           transform="translate(339.0928,231.5181)"><path
             d="m 0,0 -0.737,-0.692 c -0.557,0.617 -0.993,0.827 -1.701,0.827 -0.722,0 -1.323,-0.285 -1.714,-0.842 -0.347,-0.481 -0.482,-1.054 -0.482,-1.986 0,-0.933 0.135,-1.505 0.482,-1.987 0.391,-0.556 0.992,-0.841 1.714,-0.841 0.708,0 1.144,0.225 1.701,0.841 L 0,-5.387 c -0.768,-0.827 -1.415,-1.097 -2.438,-1.097 -1.865,0 -3.279,1.263 -3.279,3.791 0,2.527 1.414,3.791 3.279,3.791 C -1.415,1.098 -0.768,0.827 0,0"
             style="fill:#f26821;fill-opacity:1;fill-rule:nonzero;stroke:none"
             id="path300" /></g><g
           id="g302"
           transform="translate(347.8467,230.5845)"><path
             d="M 0,0 C -0.181,-0.391 -0.196,-0.632 -0.226,-1.233 H 3.701 C 3.656,-0.632 3.641,-0.391 3.46,0 3.145,0.678 2.527,1.114 1.73,1.114 0.933,1.114 0.316,0.678 0,0 m 4.769,-1.564 v -0.482 h -4.995 c 0,-1.625 0.752,-2.558 2.182,-2.558 0.857,0 1.354,0.256 1.94,0.843 L 4.634,-4.408 C 3.882,-5.16 3.174,-5.551 1.926,-5.551 c -1.971,0 -3.235,1.173 -3.235,3.791 0,2.407 1.159,3.791 3.039,3.791 1.926,0 3.039,-1.369 3.039,-3.595"
             style="fill:#f26821;fill-opacity:1;fill-rule:nonzero;stroke:none"
             id="path304" /></g><g
           id="g306"
           transform="translate(361.8359,230.5845)"><path
             d="M 0,0 C -0.181,-0.391 -0.196,-0.632 -0.226,-1.233 H 3.701 C 3.656,-0.632 3.641,-0.391 3.46,0 3.145,0.678 2.527,1.114 1.73,1.114 0.933,1.114 0.316,0.678 0,0 m 4.769,-1.564 v -0.482 h -4.995 c 0,-1.625 0.752,-2.558 2.182,-2.558 0.857,0 1.354,0.256 1.94,0.843 L 4.634,-4.408 C 3.882,-5.16 3.174,-5.551 1.926,-5.551 c -1.971,0 -3.235,1.173 -3.235,3.791 0,2.407 1.159,3.791 3.039,3.791 1.926,0 3.039,-1.369 3.039,-3.595"
             style="fill:#f26821;fill-opacity:1;fill-rule:nonzero;stroke:none"
             id="path308" /></g><g
           id="g310"
           transform="translate(375.6152,228.8248)"><path
             d="m 0,0 c 0,-1.444 0.24,-2.828 1.85,-2.828 1.625,0 1.866,1.384 1.866,2.828 0,1.444 -0.241,2.828 -1.866,2.828 C 0.24,2.828 0,1.444 0,0 M 4.799,-3.701 H 3.716 v 0.873 C 3.099,-3.596 2.452,-3.791 1.625,-3.791 c -0.768,0 -1.415,0.255 -1.806,0.646 -0.737,0.738 -0.902,1.957 -0.902,3.145 0,1.188 0.165,2.393 0.902,3.145 0.391,0.39 1.038,0.646 1.806,0.646 0.812,0 1.474,-0.195 2.091,-0.963 v 4.183 h 1.083 z"
             style="fill:#f26821;fill-opacity:1;fill-rule:nonzero;stroke:none"
             id="path312" /></g><g
           id="g314"
           transform="translate(399.9531,227.1392)"><path
             d="M 0,0 C 0,-0.722 0.241,-1.083 0.993,-1.083 H 1.58 V -2.016 H 0.797 c -1.294,0 -1.88,0.843 -1.88,1.971 V 8.696 H 0 Z"
             style="fill:#f26821;fill-opacity:1;fill-rule:nonzero;stroke:none"
             id="path316" /></g><path
           d="m 410.468,225.124 h -1.083 v 7.402 h 1.083 z m 0.075,9.508 h -1.219 v 1.219 h 1.219 z"
           style="fill:#f26821;fill-opacity:1;fill-rule:nonzero;stroke:none"
           id="path318" /><g
           id="g320"
           transform="translate(429.0015,231.9244)"><path
             d="m 0,0 c 0.527,-0.512 0.797,-1.204 0.797,-2.062 v -4.739 h -1.083 v 4.559 c 0,1.308 -0.707,1.971 -1.82,1.971 -1.083,0 -1.851,-0.677 -1.851,-1.851 V -6.801 H -5.04 v 4.559 c 0,1.308 -0.707,1.971 -1.82,1.971 -1.114,0 -1.851,-0.677 -1.851,-1.971 v -4.559 h -1.083 v 7.403 h 1.083 v -0.813 c 0.526,0.602 1.264,0.902 2.091,0.902 1.023,0 1.821,-0.42 2.272,-1.233 0.572,0.813 1.399,1.233 2.437,1.233 C -1.113,0.691 -0.451,0.436 0,0"
             style="fill:#f26821;fill-opacity:1;fill-rule:nonzero;stroke:none"
             id="path322" /></g><path
           d="m 439.53,225.124 h -1.083 v 7.402 h 1.083 z m 0.075,9.508 h -1.219 v 1.219 h 1.219 z"
           style="fill:#f26821;fill-opacity:1;fill-rule:nonzero;stroke:none"
           id="path324" /><g
           id="g326"
           transform="translate(449.5327,232.5259)"><path
             d="M 0,0 H 1.58 V -0.827 H 0 v -4.56 C 0,-6.078 0.316,-6.47 1.008,-6.47 H 1.58 V -7.402 H 0.812 c -1.263,0 -1.895,0.887 -1.895,1.986 v 4.589 H -2.016 V 0 h 0.933 V 2.271 H 0 Z"
             style="fill:#f26821;fill-opacity:1;fill-rule:nonzero;stroke:none"
             id="path328" /></g><g
           id="g330"
           transform="translate(464.2295,231.8189)"><path
             d="m 0,0 -0.707,-0.707 c -0.527,0.406 -1.204,0.587 -1.971,0.587 -1.083,0 -1.655,-0.452 -1.655,-1.219 0,-0.662 0.406,-0.993 1.324,-1.084 l 1.158,-0.104 c 1.294,-0.121 2.182,-0.603 2.182,-2.002 0,-1.429 -1.204,-2.256 -3.009,-2.256 -1.264,0 -2.242,0.285 -3.039,1.067 l 0.722,0.723 c 0.572,-0.602 1.384,-0.858 2.302,-0.858 1.234,0 1.971,0.437 1.971,1.309 0,0.662 -0.361,1.008 -1.234,1.083 l -1.219,0.106 c -1.444,0.12 -2.211,0.751 -2.211,1.986 0,1.353 1.128,2.166 2.723,2.166 C -1.595,0.797 -0.677,0.541 0,0"
             style="fill:#f26821;fill-opacity:1;fill-rule:nonzero;stroke:none"
             id="path332" /></g><path
           d="m 474.082,225.124 h -1.415 v 1.414 h 1.415 z"
           style="fill:#f26821;fill-opacity:1;fill-rule:nonzero;stroke:none"
           id="path334" /></g></g></g></svg>
